<?xml version="1.0" encoding="UTF-8"?>
<svg id="Layer_1" data-name="Layer 1" xmlns="http://www.w3.org/2000/svg" viewBox="0 0 414.04 768">
  <defs>
    <style>
      .cls-1 {
        fill: #c00505;
        stroke-width: 0px;
      }
    </style>
  </defs>
  <path class="cls-1" d="M204.97,768c-5.36-46.46-10.16-87.36-14.77-128.28-12.18-108.14-24.27-216.29-36.44-324.43-1.85-16.42-5.35-32.09,13.37-43.47,14.68-8.92,9.76-26.02,9.77-40.27,0-7.29-6.03-6.34-10.65-6.35-29.14-.1-58.29-.35-87.42.11-11.69.18-18.49,5.64-8.54,16.53,10.57,11.57,1.29,14.29-6.58,16.92-15.57,5.19-34.27-6.27-34.96-23.02-.45-11.02-3.17-16.62-13.04-22.19-20.85-11.78-20.93-23.65-.35-35.66,9.52-5.56,13.25-10.51,13.39-21.97.19-15.8,17.94-27.95,32.51-23.84,8.77,2.48,21.44,4.2,8.11,18.65-8.61,9.34-1.53,15.79,8.76,16,29.82.61,59.67,0,89.5.39,8.86.12,10.26-4.28,10.2-11.56-.19-25.67.23-51.34-.22-77-.23-13.08-7.08-16.97-16.92-7.68-9.97,9.42-13.29,2-16.16-5.2-6.46-16.21,5.12-36.12,22.77-36.37,11.55-.17,16.51-4.14,21.94-13.53,12.17-21.01,23.66-21.05,35.87.02,5.46,9.42,10.21,13.53,21.84,13.5,16.12-.05,27.48,16.76,23.42,32.18-2.34,8.86-3.61,21.61-18.24,8.17-8.86-8.13-15.78-2.47-15.95,8.7-.41,26.35.07,52.72-.23,79.08-.11,9.26,5.37,9.63,12.19,9.61,28.45-.11,56.9.28,85.34-.19,13.9-.23,20.98-5.46,9.06-18.68-6.58-7.29-2.34-10.78,3.99-14.09,15.67-8.21,37.74,3.06,38.66,21.42.54,10.86,2.86,16.53,13.03,22.13,21.55,11.86,20.98,24.16-1.15,36.81-8.18,4.67-11.56,8.76-11.75,18.57-.34,17.88-15.69,29.97-32.13,26.18-8.95-2.06-22.02-3.85-8.31-18.27,7.31-7.68,3.59-15.14-6.79-15.38-30.51-.7-61.05-.35-91.58-.32-4.17,0-8.94.28-9.12,5.92-.47,15.04-4.5,32.18,10.84,41.92,14.57,9.24,14.42,20.97,12.77,35.45-17.1,150.14-33.81,300.32-50.7,450.49-.14,1.21-1.31,2.3-5.34,9Z"/>
</svg>